# xmcd CD database file
#
# Track frame offsets:
#	150
#	2770
#	16985
#	30422
#	46260
#	60510
#	74267
#	85102
#	105027
#	121950
#	133762
#	147780
#	158850
#	175245
#	190085
#	201915
#	215362
#	234575
#	245590
#	261002
#	272357
#	283975
#	297590
#	316215
#	336530
#
# Disc length: 4767 seconds
#
# Revision: 0
# Processed by: cddbd v1.4PL0 Copyright (c) Steve Scherf et al.
# Submitted via: CD2WAV32(EN) R3.19
#
DISCID=68129d19
DTITLE=DJ Kaori - DJ Kaori's Def Jam mix
DYEAR=1900
DGENRE=
TTITLE0=LIFE INTROLUDE
TTITLE1=LEAVING - ASHANTY
TTITLE2=AMAZIN' - LL COOL J
TTITLE3=IF I COULD - DRU HILL
TTITLE4=NOT YOUR FRIEND - CASE
TTITLE5=NEWNESS - MUSIQ
TTITLE6=TONIGHT'S THE NIGHT - REDMAN
TTITLE7=THUG LOVIN' (feat. BOBBY BROWN) - JA RULE
TTITLE8=WHAT'S UP (feat. REDMAN) - JONELL
TTITLE9=SOMETHIN' 4 DA HONEYZ - MONTELL JORDAN
TTITLE10=WHAT WOULD IT BE LIKE - 3RD STOREE
TTITLE11=LOVE SETS YOU FREE (feat. AARON HALL) - KELLY PRICE
TTITLE12=ALRIGHT - ALLEN ANTHONY
TTITLE13=HALFCRAZY - MUSIQ
TTITLE14=MISSING U - CASE
TTITLE15=DOWN 4 U - JA RULE, ASHANTI, VITA&CHARLIE BALTIMORE
TTITLE16=GROWING PAINS (DO IT AGAIN) RMX - LIL' FATE, SHAWNA, LUDACRIS, SCAR
TTITLE16=FACE and KEON BRYCE
TTITLE17=IN BETWEEN US - SCARFACE
TTITLE18=JUST ANOTHER CASE - CRU
TTITLE19=CAKE AND EAT IT, TOO - NICE AND SMOOTH
TTITLE20=LIFE (L.A. TO CHICAGO) - K. FOX
TTITLE21=GIRLS, GIRLS, GIRLS - JAY-Z
TTITLE22=TEENAGE LOVE - SLICK RICK
TTITLE23=INCOMPLETE - SISQO
TTITLE24=LOVE - MUSIQ SOULCHILD
EXTD=
EXTT0=
EXTT1=
EXTT2=
EXTT3=
EXTT4=
EXTT5=
EXTT6=
EXTT7=
EXTT8=
EXTT9=
EXTT10=
EXTT11=
EXTT12=
EXTT13=
EXTT14=
EXTT15=
EXTT16=
EXTT17=
EXTT18=
EXTT19=
EXTT20=
EXTT21=
EXTT22=
EXTT23=
EXTT24=
PLAYORDER=
